PathFileType	4	(X/Y/Z)	D:\TRACE\spotREDO_2-26-24\spot_justBody_Motion_2_7-v60.trc
DataRate	CameraRate	NumFrames	NumMarkers	Units	OrigDataRate	OrigDataStartFrame	OrigNumFrames
100.00	100.00	      17	9	mm	100.00	876	      7000
Frame#	Time	front left toe			Front right toe			aft left toe			aft right toe			Arm			FL body			FR body			AL Body			AR Body			
		X1	Y1	Z1	X2	Y2	Z2	X3	Y3	Z3	X4	Y4	Z4	X5	Y5	Z5	X6	Y6	Z6	X7	Y7	Z7	X8	Y8	Z8	X9	Y9	Z9	

876	8.750	-247.73851	1.80546	-244.13425	351.47571	20.64764	-114.64336	-302.16245	37.62038	258.57242	228.12254	66.40022	420.68048	45.58387	792.61395	-390.69003	-42.48762	534.29816	-373.71957	110.09100	539.06543	-342.51233	-227.60652	583.48456	489.47452	-89.23159	588.54803	519.81183	
877	8.760	-246.71846	2.05536	-243.86475	352.63416	20.68913	-114.47328	-301.49765	37.42638	258.57877	229.46452	65.60213	420.70990	47.74023	791.96515	-390.17383	-40.82243	533.72131	-373.05533	111.56950	538.59412	-342.12653	-226.10411	584.23749	489.72418	-87.79724	589.01349	520.05444	
878	8.770	-246.32407	3.46512	-243.94353	353.77094	20.89811	-114.09126	-300.17126	37.13317	258.71185	230.16978	65.11985	421.02066	49.24546	791.62537	-390.15344	-39.30959	533.40686	-372.94281	113.21042	538.07135	-341.73007	-224.74373	584.83081	490.03262	-86.22923	589.47729	520.34955	
879	8.780	-245.25760	3.86625	-243.68695	354.69476	20.93409	-113.87904	-299.28323	36.87080	258.47971	231.70595	64.39824	421.16830	51.60778	790.83105	-389.86670	-37.52688	533.01312	-372.48972	115.28667	536.93036	-340.60962	-223.14098	585.39093	490.54047	-84.88110	589.93164	520.69299	
880	8.790	-243.93988	4.05556	-243.39972	355.70346	21.07155	-113.80836	-297.95462	36.63170	259.20746	232.51775	63.81586	421.27621	53.13609	790.60791	-389.83862	-35.83707	532.61157	-372.04163	116.66337	536.61249	-340.37881	-221.58362	585.87549	490.76337	-83.28380	590.44556	521.09790	
881	8.800	-242.18208	3.62215	-243.12369	357.06161	21.27299	-113.28332	-296.89581	36.27040	259.13443	234.23929	63.56484	421.65485	55.55032	789.88739	-389.49542	-34.14066	532.19702	-371.70245	118.21241	536.32135	-340.43466	-220.05940	586.34442	491.12027	-81.96967	590.81885	521.27179	
882	8.810	-241.23659	4.21607	-242.98398	357.96729	21.50754	-113.14762	-295.89542	36.00341	259.26141	234.86906	62.65377	421.62808	57.08899	789.54449	-389.42563	-32.47076	531.80072	-371.07205	120.04796	535.89752	-339.88760	-218.34885	586.96191	491.39450	-79.95572	591.19617	521.83240	
883	8.820	-240.41574	5.33437	-242.79398	359.12335	21.69983	-112.84891	-294.67609	35.47243	259.59897	236.47124	62.24805	422.17267	59.45336	789.07153	-389.05383	-30.85360	531.47803	-370.76181	121.64189	535.06116	-339.11023	-216.73810	587.39404	491.76785	-78.55179	591.50708	522.05707	
884	8.830	-239.37077	5.87746	-242.53543	360.30463	21.96605	-112.43739	-293.70706	35.35475	259.62558	237.02182	61.34286	422.27155	61.36413	788.82758	-388.82718	-29.24499	531.16278	-370.29370	123.50433	534.53735	-338.40179	-215.06924	587.92511	492.30865	-76.79725	591.85193	522.52991	
885	8.840	-238.41925	6.10239	-242.24423	361.23315	22.14308	-112.41557	-292.23630	34.81368	259.99149	238.48149	60.93317	422.71167	63.56475	788.20972	-388.43576	-27.46691	530.86438	-369.75821	125.04296	534.57172	-338.57346	-213.51596	588.30603	492.70868	-74.98545	592.00134	523.06799	
886	8.850	-236.51787	5.87367	-242.08292	362.44534	22.43282	-112.03297	-291.35071	34.53956	260.08218	239.77402	59.96439	422.99799	65.24818	787.74786	-388.24176	-26.01622	530.86768	-369.62338	126.78663	534.04279	-338.06284	-211.63655	588.69019	493.07382	-73.46912	592.37683	523.36792	
887	8.860	-235.38116	6.31775	-241.61740	363.56351	22.49163	-111.83514	-289.88708	33.93392	260.53311	240.59776	59.38963	423.10486	67.19363	787.50543	-387.70459	-24.06303	530.50299	-368.93890	128.38208	533.70490	-337.67157	-209.98817	588.96130	493.60678	-71.64393	592.53571	523.87439	
888	8.870	-234.23552	7.10097	-241.44742	364.82037	22.65812	-111.41002	-289.17712	33.79082	260.57831	242.07512	58.77903	423.30310	69.46089	787.17041	-387.32150	-22.37370	530.28009	-368.42789	130.01028	533.37354	-337.25842	-208.11765	589.44977	494.02325	-69.68599	592.86633	524.29089	
889	8.880	-233.74785	8.21395	-241.40053	365.72748	22.99674	-111.09373	-287.58435	33.26801	260.79544	243.19034	57.85220	423.68613	71.16611	787.17096	-387.02768	-20.90579	530.23114	-367.96927	131.69725	533.13013	-336.63815	-206.34808	589.80426	494.45047	-68.15247	592.91498	524.84460	
890	8.890	-232.57805	8.87553	-241.11185	367.10059	23.29092	-110.83146	-286.72766	33.14334	261.10840	244.48244	57.14457	423.80588	72.85894	786.92755	-386.60147	-19.18171	530.05750	-367.40323	133.39462	532.86719	-336.13589	-204.55304	590.15448	495.01105	-66.11730	593.10681	525.23871	
891	8.900	-231.24463	9.04975	-240.70247	367.96896	23.45460	-110.64412	-285.38019	32.60881	261.37607	245.34023	56.47854	424.18350	74.89468	786.65424	-386.21207	-17.60821	530.03577	-367.03790	135.10727	532.56964	-335.53632	-202.81264	590.41479	495.54785	-64.33776	593.27014	525.82220	
892	8.910	-230.23778	9.85519	-240.64580	369.07275	23.62262	-110.41513	-284.32800	32.11941	261.44827	246.86090	55.53584	424.34885	76.80746	786.30872	-385.68707	-15.84266	529.73584	-366.25253	136.48715	532.36212	-335.31647	-200.77496	590.46686	496.10257	-63.26904	593.50043	526.14233	
